<svg width="192" height="544" xmlns="http://www.w3.org/2000/svg" xmlns:xlink="http://www.w3.org/1999/xlink" xml:space="preserve" overflow="hidden"><defs><clipPath id="clip0"><rect x="852" y="737" width="192" height="544"/></clipPath></defs><g clip-path="url(#clip0)" transform="translate(-852 -737)"><path d="M1044 1069.84C1044 1026.36 1000.48 998.602 971.872 998.602 969.025 998.607 966.186 998.871 963.388 999.391L952.465 946.096C1006.56 897.262 1001.58 833.295 1001.58 817.028 1001.58 800.213 999.383 753.095 968.677 737 926.98 753.815 923.683 818.47 923.683 830.172 923.683 841.874 924.404 839.678 931.72 891.943 932.269 895.855 933.093 900.831 934.158 906.665 888.992 951.793 852 988.512 852 1045 852 1101.49 895.896 1156.81 955.866 1156.81 965.627 1156.89 975.352 1155.59 984.751 1152.96 991.106 1185.7 995.365 1211.3 995.365 1221.12 995.365 1257.29 969.021 1272.59 949.271 1272.59 929.521 1272.59 925.881 1258.87 925.881 1258.87 957.686 1258.87 954.045 1225.89 954.045 1225.89L954.045 1225.89C953.491 1209.73 939.933 1197.08 923.762 1197.63 908.368 1198.16 896.011 1210.51 895.484 1225.89L895.484 1225.89C895.484 1226.09 895.484 1226.3 895.484 1226.54 895.484 1226.78 895.484 1226.54 895.484 1226.54 895.484 1226.54 895.484 1226.71 895.484 1226.81 895.758 1254.27 907.127 1281 950.439 1281 994.334 1281 1005.67 1238.96 1005.67 1222.66 1005.6 1212.15 1004.74 1201.65 1003.09 1191.26L994.506 1149.63C1027.99 1135.39 1044 1102.48 1044 1069.84ZM975.65 784.118C989.182 784.118 992.102 793.624 992.102 810.062 992.102 825.642 982.278 856.219 942.505 898.155 941.955 895.444 941.406 892.87 940.89 890.468 925.125 815.553 961.911 784.118 975.65 784.118ZM955.488 1147.68C885.282 1147.68 872.849 1080.45 872.849 1060.72 872.849 1040.98 886.588 1001.76 943.398 953.783 946.455 968.643 949.889 985.047 953.496 1002.21 926.128 1013.09 908.297 1039.69 908.638 1069.12 908.638 1111.88 953.633 1118.44 953.633 1118.44 930.586 1100.18 929.59 1087.76 929.59 1079.35 929.59 1071.9 933.334 1043.87 961.052 1037.52 968.883 1074.44 976.886 1112.43 983.172 1144.49 974.122 1146.75 964.815 1147.82 955.488 1147.68ZM992.823 1141.19C986.915 1112.5 979.084 1074.68 971.185 1036.28L973.142 1036.28C1011.89 1036.28 1019.58 1083.78 1019.58 1091.81 1019.48 1097.99 1023.19 1127.81 992.823 1141.19Z" fill-rule="evenodd"/></g></svg>